REM DIRINDEX 1\2\4,1\2\5,1\2\6,1\3\7,1\3\8,1\3\9,1\3\10
REM DIRNAME cjc057,folder01,folder02,folder03,folder04,folder05,folder06,folder07,folder08,folder09
TITLE ""
FILE "b_174.mp3" MP3
  TRACK 01 AUDIO
    TITLE "0:"
    INDEX 01 00:00:00
  TRACK 02 AUDIO
    TITLE "7:cjc057_09418"
    INDEX 01 00:00:11
  TRACK 03 AUDIO
    TITLE "0:"
    INDEX 01 00:01:36
  TRACK 04 AUDIO
    TITLE "8:cjc057_09419"
    INDEX 01 00:01:64
  TRACK 05 AUDIO
    TITLE "0:"
    INDEX 01 00:03:74
  TRACK 06 AUDIO
    TITLE "9:cjc057_09420"
    INDEX 01 00:04:46
  TRACK 07 AUDIO
    TITLE "0:"
    INDEX 01 00:09:02
  TRACK 08 AUDIO
    TITLE "7:cjc057_09421"
    INDEX 01 00:10:12
  TRACK 09 AUDIO
    TITLE "0:"
    INDEX 01 00:11:44
  TRACK 10 AUDIO
    TITLE "8:cjc057_09422"
    INDEX 01 00:12:05
  TRACK 11 AUDIO
    TITLE "0:"
    INDEX 01 00:14:37
  TRACK 12 AUDIO
    TITLE "9:cjc057_09423"
    INDEX 01 00:15:09
  TRACK 13 AUDIO
    TITLE "0:"
    INDEX 01 00:18:66
  TRACK 14 AUDIO
    TITLE "7:cjc057_09424"
    INDEX 01 00:20:00
  TRACK 15 AUDIO
    TITLE "0:"
    INDEX 01 00:21:33
  TRACK 16 AUDIO
    TITLE "8:cjc057_09425"
    INDEX 01 00:21:66
  TRACK 17 AUDIO
    TITLE "0:"
    INDEX 01 00:24:35
  TRACK 18 AUDIO
    TITLE "9:cjc057_09426"
    INDEX 01 00:25:01
  TRACK 19 AUDIO
    TITLE "0:"
    INDEX 01 00:28:62
  TRACK 20 AUDIO
    TITLE "7:cjc057_09427"
    INDEX 01 00:29:72
  TRACK 21 AUDIO
    TITLE "0:"
    INDEX 01 00:31:16
  TRACK 22 AUDIO
    TITLE "8:cjc057_09428"
    INDEX 01 00:31:49
  TRACK 23 AUDIO
    TITLE "0:"
    INDEX 01 00:35:41
  TRACK 24 AUDIO
    TITLE "9:cjc057_09429"
    INDEX 01 00:36:11
  TRACK 25 AUDIO
    TITLE "0:"
    INDEX 01 00:40:21
  TRACK 26 AUDIO
    TITLE "7:cjc057_09430"
    INDEX 01 00:41:32
  TRACK 27 AUDIO
    TITLE "0:"
    INDEX 01 00:42:47
  TRACK 28 AUDIO
    TITLE "8:cjc057_09431"
    INDEX 01 00:43:07
  TRACK 29 AUDIO
    TITLE "0:"
    INDEX 01 00:45:55
  TRACK 30 AUDIO
    TITLE "9:cjc057_09432"
    INDEX 01 00:46:23
  TRACK 31 AUDIO
    TITLE "0:"
    INDEX 01 00:50:15
  TRACK 32 AUDIO
    TITLE "7:cjc057_09433"
    INDEX 01 00:51:24
  TRACK 33 AUDIO
    TITLE "0:"
    INDEX 01 00:52:43
  TRACK 34 AUDIO
    TITLE "8:cjc057_09434"
    INDEX 01 00:53:04
  TRACK 35 AUDIO
    TITLE "0:"
    INDEX 01 00:56:33
  TRACK 36 AUDIO
    TITLE "9:cjc057_09435"
    INDEX 01 00:57:01
  TRACK 37 AUDIO
    TITLE "0:"
    INDEX 01 01:00:12
  TRACK 38 AUDIO
    TITLE "7:cjc057_09436"
    INDEX 01 01:01:21
  TRACK 39 AUDIO
    TITLE "0:"
    INDEX 01 01:02:32
  TRACK 40 AUDIO
    TITLE "8:cjc057_09437"
    INDEX 01 01:02:67
  TRACK 41 AUDIO
    TITLE "0:"
    INDEX 01 01:04:17
  TRACK 42 AUDIO
    TITLE "9:cjc057_09438"
    INDEX 01 01:04:64
  TRACK 43 AUDIO
    TITLE "0:"
    INDEX 01 01:08:56
  TRACK 44 AUDIO
    TITLE "7:cjc057_09439"
    INDEX 01 01:09:67
  TRACK 45 AUDIO
    TITLE "0:"
    INDEX 01 01:11:37
  TRACK 46 AUDIO
    TITLE "8:cjc057_09440"
    INDEX 01 01:11:72
  TRACK 47 AUDIO
    TITLE "0:"
    INDEX 01 01:14:31
  TRACK 48 AUDIO
    TITLE "9:cjc057_09441"
    INDEX 01 01:15:03
  TRACK 49 AUDIO
    TITLE "0:"
    INDEX 01 01:18:74
  TRACK 50 AUDIO
    TITLE "7:cjc057_09442"
    INDEX 01 01:20:08
  TRACK 51 AUDIO
    TITLE "0:"
    INDEX 01 01:21:25
  TRACK 52 AUDIO
    TITLE "8:cjc057_09443"
    INDEX 01 01:21:61
  TRACK 53 AUDIO
    TITLE "0:"
    INDEX 01 01:23:07
  TRACK 54 AUDIO
    TITLE "9:cjc057_09444"
    INDEX 01 01:23:56
  TRACK 55 AUDIO
    TITLE "0:"
    INDEX 01 01:27:32
  TRACK 56 AUDIO
    TITLE "7:cjc057_09445"
    INDEX 01 01:28:41
  TRACK 57 AUDIO
    TITLE "0:"
    INDEX 01 01:29:66
  TRACK 58 AUDIO
    TITLE "8:cjc057_09446"
    INDEX 01 01:30:26
  TRACK 59 AUDIO
    TITLE "0:"
    INDEX 01 01:32:55
  TRACK 60 AUDIO
    TITLE "9:cjc057_09447"
    INDEX 01 01:33:27
  TRACK 61 AUDIO
    TITLE "0:"
    INDEX 01 01:36:58
